<?xml version="1.0" encoding="UTF-8" standalone="no"?>
<!-- Created with Inkscape (http://www.inkscape.org/) -->

<svg
   xmlns:dc="http://purl.org/dc/elements/1.1/"
   xmlns:cc="http://creativecommons.org/ns#"
   xmlns:rdf="http://www.w3.org/1999/02/22-rdf-syntax-ns#"
   xmlns:svg="http://www.w3.org/2000/svg"
   xmlns="http://www.w3.org/2000/svg"
   xmlns:sodipodi="http://sodipodi.sourceforge.net/DTD/sodipodi-0.dtd"
   xmlns:inkscape="http://www.inkscape.org/namespaces/inkscape"
   width="744.09448819"
   height="1052.3622047"
   id="svg2"
   version="1.1"
   inkscape:version="0.48.1 r9760"
   sodipodi:docname="plosurin.svg"
   inkscape:export-filename="/tmp/plosurin/art/plosurin-logo-175.png"
   inkscape:export-xdpi="20"
   inkscape:export-ydpi="20">
  <defs
     id="defs4" />
  <sodipodi:namedview
     id="base"
     pagecolor="#ffffff"
     bordercolor="#666666"
     borderopacity="1.0"
     inkscape:pageopacity="0.0"
     inkscape:pageshadow="2"
     inkscape:zoom="0.49497475"
     inkscape:cx="425.60563"
     inkscape:cy="709.61867"
     inkscape:document-units="px"
     inkscape:current-layer="layer1"
     showgrid="false" />
  <metadata
     id="metadata7">
    <rdf:RDF>
      <cc:Work
         rdf:about="">
        <dc:format>image/svg+xml</dc:format>
        <dc:type
           rdf:resource="http://purl.org/dc/dcmitype/StillImage" />
        <dc:title></dc:title>
      </cc:Work>
    </rdf:RDF>
  </metadata>
  <g
     inkscape:label="Layer 1"
     inkscape:groupmode="layer"
     id="layer1">
    <g
       id="g3844"
       transform="translate(773.77685,-226.27417)">
      <path
         inkscape:connector-curvature="0"
         d="m -258.36204,918.07649 c 2.85714,1.42857 5.71429,2.85714 8.57143,4.28572 7.79005,3.89502 14.92713,8.10897 21.64684,13.70632 19.43943,16.19258 -8.16937,-5.68211 10.02546,8.59097 2.07744,0.44678 4.18995,0.75381 6.23234,1.34034 2.47215,0.70996 4.82543,1.7912 7.28555,2.54175 6.41271,1.95642 13.45964,2.85122 19.28733,6.24331 3.28742,2.87356 12.2814,-0.64171 14.96501,0.16127 0.97278,0.29107 1.6279,1.2141 2.44185,1.82115 1.59699,2.55314 4.72745,4.09579 6.29659,6.61445 0.98164,1.57566 1.33704,3.46805 2.14173,5.14101 1.45912,3.03352 5.32793,9.68445 6.90736,12.4527 4.30994,6.26707 4.6989,13.578 6.73956,20.57722 1.03595,3.5531 2.89514,6.332 3.47949,9.9935 -0.0679,0.485 -0.56704,4.4034 -0.82698,4.8434 -2.42791,4.11 -8.50175,4.7224 -12.427,6.5084 -7.22153,2.5069 1.26649,-0.137 -7.88539,1.5127 -12.9461,2.3336 6.95577,-0.035 -8.78252,2.2088 -4.7325,0.6746 -7.23601,0.4545 -12.0385,0.3982 -5.63688,-2.9284 -12.7928,3.2791 -18.08374,2.89 -4.71669,-0.3469 -5.70328,-2.0061 -9.25682,-4.7924 -1.13733,-1.3672 -2.31993,-2.698 -3.412,-4.1017 -2.0766,-2.669 -3.04939,-4.5214 -5.24877,-7.0162 -12.60193,-14.29494 6.82134,8.5966 -9.5258,-9.5196 -1.38573,-1.5357 -2.5038,-3.2932 -3.7557,-4.93981 -1.28212,-4.37801 -4.22342,-2.92505 -5.02723,-7.18485 -1.07756,-5.71052 1.16305,-1.48564 -1.56403,-6.74628 -0.21773,-0.88019 -0.77128,-1.74157 -0.6532,-2.64056 0.96659,-7.35904 12.02325,-8.36645 17.59739,-10.09988 1.9434,-0.35288 3.91978,-0.55699 5.83019,-1.05866 8.60811,-2.26048 0.34544,-1.24688 9.45051,-2.91815 6.20439,-1.13883 2.43634,0.3626 9.9791,-0.14171 1.66408,-0.11126 3.27181,-0.64916 4.90771,-0.97375 7.02295,-1.12288 13.83741,-2.55748 20.71439,-4.39856 0,0 0.73886,2.75996 0.73886,2.75996 l 0,0 c -6.94288,1.85863 -13.83239,3.3034 -20.91875,4.44531 -1.85631,0.34046 -3.68609,0.89206 -5.56892,1.02137 -6.78932,0.46627 -3.66299,-0.93164 -9.14941,0.0567 -7.50662,1.35226 -1.88847,0.91639 -9.64814,2.96094 -1.79713,0.47352 -3.65959,0.65035 -5.48938,0.97553 -2.96663,0.91727 -14.87308,3.25542 -15.65911,6.73046 -0.14791,0.65392 0.27147,1.31312 0.4072,1.96968 0.60626,1.17734 1.81838,3.34326 1.99504,4.60072 0.18481,1.31548 -0.99301,2.95344 -0.15268,3.98227 0.58965,0.72191 1.7001,0.86073 2.32726,1.55031 0.90107,0.99074 1.44155,2.25741 2.16232,3.38611 1.15505,1.53711 2.17606,3.18475 3.46514,4.61135 16.0294,17.7391 -2.91858,-4.63561 9.78906,9.8125 2.12543,2.4166 3.23536,4.3897 5.20316,6.9594 0.96637,1.2619 2.00524,2.4666 3.00785,3.7 2.1008,1.784 3.8756,3.9443 6.86561,4.2137 4.81786,0.4341 13.44199,-5.9233 18.70914,-2.9512 4.40999,0.06 7.06168,0.2745 11.40263,-0.3347 11.56202,-1.6226 -1.82535,-0.3068 9.17622,-2.265 8.51322,-1.5153 -0.22267,1.1828 6.92152,-1.2697 1.26068,-0.5588 10.2976,-3.6238 10.79614,-4.467 0.6719,-1.1364 0.24309,-2.6945 0.79847,-3.8793 -0.40553,-3.5276 -2.45008,-6.4021 -3.44643,-9.8049 -1.96832,-6.72221 -2.25514,-13.72948 -6.42519,-19.74888 -1.54371,-2.70651 -5.71232,-9.86987 -7.08539,-12.82492 -0.62382,-1.34255 -0.73208,-2.91798 -1.51341,-4.1754 -1.5828,-2.54728 -4.75082,-4.10646 -6.36524,-6.68633 -0.0268,-0.30441 0.21656,-0.84143 -0.0805,-0.91322 -0.87278,-0.21095 -1.7901,0.14641 -2.68254,0.2454 -4.77404,0.52951 -9.45756,1.27741 -14.02656,-0.80959 -4.85456,-3.11384 -13.19709,-4.29398 -18.74838,-5.98882 -2.36531,-0.72214 -4.63277,-1.74301 -7.00017,-2.45826 -2.41695,-0.73021 -4.89272,-1.24929 -7.33908,-1.87394 -7.52065,-5.9182 -14.3058,-12.79411 -22.61342,-17.7027 -2.75019,-1.62497 -5.71428,-2.85715 -8.57143,-4.28572 -2.85714,-1.42857 -5.71428,-2.85714 -8.57142,-4.28571 0,0 1.27775,-2.55551 1.27775,-2.55551 z"
         id="path3841"
         style="opacity:0.55087723;fill:none;stroke:#fe3366;stroke-width:10.39999962;stroke-linecap:round;stroke-linejoin:round;stroke-miterlimit:4;stroke-opacity:0;stroke-dasharray:none;stroke-dashoffset:0" />
      <g
         transform="translate(-719.22861,149.50256)"
         id="g5392">
        <path
           sodipodi:type="arc"
           style="fill:#ffff00;fill-rule:evenodd;stroke:#000000;stroke-width:5;stroke-linecap:butt;stroke-linejoin:miter;stroke-miterlimit:4;stroke-opacity:1;stroke-dasharray:none"
           id="path2989"
           sodipodi:cx="175.71428"
           sodipodi:cy="333.79074"
           sodipodi:rx="112.85714"
           sodipodi:ry="112.85714"
           d="m 288.57142,333.79074 c 0,62.32928 -50.52786,112.85714 -112.85714,112.85714 -62.32928,0 -112.85714,-50.52786 -112.85714,-112.85714 0,-62.32928 50.52786,-112.85714 112.85714,-112.85714 62.32928,0 112.85714,50.52786 112.85714,112.85714 z"
           transform="matrix(1.2104544,0,0,1.1836022,-80.074877,239.2106)" />
        <g
           id="g5337"
           transform="translate(-129.29953,78.791898)">
          <path
             transform="matrix(1.2757728,0,0,1.2569048,1103.8647,-497.26485)"
             d="m -593.96967,814.97632 c 0,29.56827 -23.96981,53.53808 -53.53808,53.53808 -29.56827,0 -53.53809,-23.96981 -53.53809,-53.53808 0,-29.56827 23.96982,-53.53809 53.53809,-53.53809 29.56827,0 53.53808,23.96982 53.53808,53.53809 z"
             sodipodi:ry="53.538086"
             sodipodi:rx="53.538086"
             sodipodi:cy="814.97632"
             sodipodi:cx="-647.50775"
             id="path5331"
             style="opacity:0.99288252;fill:#f73550;fill-opacity:1;stroke:#f73550;stroke-width:10.5;stroke-linecap:round;stroke-linejoin:round;stroke-miterlimit:4;stroke-opacity:1;stroke-dasharray:none;stroke-dashoffset:0"
             sodipodi:type="arc" />
          <path
             inkscape:transform-center-x="-20.203051"
             transform="matrix(0.67604687,0.43707974,-0.60378688,0.93389876,637.90657,-141.43749)"
             d="m 108.57143,670.93359 c 0,21.30242 -17.908614,38.57143 -40.000004,38.57143 -22.09139,0 -40,-17.26901 -40,-38.57143 0,-21.30241 17.90861,-38.57143 40,-38.57143 22.09139,0 40.000004,17.26902 40.000004,38.57143 z"
             sodipodi:ry="38.57143"
             sodipodi:rx="40"
             sodipodi:cy="670.93359"
             sodipodi:cx="68.571426"
             id="path5313"
             style="opacity:0.99288252;fill:#0000ff;fill-opacity:1;stroke:#0000ff;stroke-width:10.5;stroke-linecap:round;stroke-linejoin:round;stroke-miterlimit:4;stroke-opacity:1;stroke-dasharray:none;stroke-dashoffset:0"
             sodipodi:type="arc" />
        </g>
      </g>
      <g
         transform="translate(-822.26417,220.21324)"
         id="g5372">
        <path
           transform="matrix(-1.2366267,0,0,1.2187252,764.45931,160.81679)"
           d="m 288.57142,333.79074 c 0,62.32928 -50.52786,112.85714 -112.85714,112.85714 -62.32928,0 -112.85714,-50.52786 -112.85714,-112.85714 0,-62.32928 50.52786,-112.85714 112.85714,-112.85714 62.32928,0 112.85714,50.52786 112.85714,112.85714 z"
           sodipodi:ry="112.85714"
           sodipodi:rx="112.85714"
           sodipodi:cy="333.79074"
           sodipodi:cx="175.71428"
           id="path3013"
           style="fill:#00ff00;fill-rule:evenodd;stroke:#000000;stroke-width:5;stroke-linecap:butt;stroke-linejoin:miter;stroke-miterlimit:4;stroke-opacity:1;stroke-dasharray:none"
           sodipodi:type="arc" />
        <g
           id="g5349"
           transform="translate(8.0812204,6.0609153)">
          <path
             sodipodi:type="arc"
             style="opacity:0.99288252;fill:#f73550;fill-opacity:1;stroke:#f73550;stroke-width:10.5;stroke-linecap:round;stroke-linejoin:round;stroke-miterlimit:4;stroke-opacity:1;stroke-dasharray:none;stroke-dashoffset:0"
             id="path5343"
             sodipodi:cx="-647.50775"
             sodipodi:cy="814.97632"
             sodipodi:rx="53.538086"
             sodipodi:ry="53.538086"
             d="m -593.96967,814.97632 c 0,29.56827 -23.96981,53.53808 -53.53808,53.53808 -29.56827,0 -53.53809,-23.96981 -53.53809,-53.53808 0,-29.56827 23.96982,-53.53809 53.53809,-53.53809 29.56827,0 53.53808,23.96982 53.53808,53.53809 z"
             transform="matrix(1.2757728,0,0,1.2569048,1336.1998,-499.28516)" />
          <path
             inkscape:transform-center-y="-16.874749"
             sodipodi:type="arc"
             style="opacity:0.99288252;fill:#0000ff;fill-opacity:1;stroke:#0000ff;stroke-width:10.5;stroke-linecap:round;stroke-linejoin:round;stroke-miterlimit:4;stroke-opacity:1;stroke-dasharray:none;stroke-dashoffset:0"
             id="path5345"
             sodipodi:cx="68.571426"
             sodipodi:cy="670.93359"
             sodipodi:rx="40"
             sodipodi:ry="38.57143"
             d="m 108.57143,670.93359 c 0,21.30242 -17.908614,38.57143 -40.000004,38.57143 -22.09139,0 -40,-17.26901 -40,-38.57143 0,-21.30241 17.90861,-38.57143 40,-38.57143 22.09139,0 40.000004,17.26902 40.000004,38.57143 z"
             transform="matrix(0.73680469,-0.32434074,0.44804795,1.0178303,151.26986,-150.29121)"
             inkscape:transform-center-x="-11.108834" />
        </g>
      </g>
      <g
         transform="translate(-814.18294,242.43661)"
         id="g5366">
        <g
           id="g3827">
          <path
             transform="matrix(-0.91540645,-0.40253079,-0.45371696,1.0318104,938.76257,-3.6031076)"
             d="m 397.14285,319.50504 c 0,100.20023 -65.8781,181.42857 -147.14285,181.42857 -81.26475,0 -147.14285,-81.22834 -147.14285,-181.42857 0,-100.20024 65.8781,-181.42858 147.14285,-181.42858 81.26475,0 147.14285,81.22834 147.14285,181.42858 z"
             sodipodi:ry="181.42857"
             sodipodi:rx="147.14285"
             sodipodi:cy="319.50504"
             sodipodi:cx="250"
             id="path3015"
             style="fill:#ff0000;fill-rule:evenodd;stroke:#000000;stroke-width:4.7679224;stroke-linecap:butt;stroke-linejoin:miter;stroke-miterlimit:4;stroke-opacity:1;stroke-dasharray:none"
             sodipodi:type="arc" />
          <path
             sodipodi:type="arc"
             style="fill:#000000;fill-rule:evenodd;stroke:#000000;stroke-width:4.7679224;stroke-linecap:butt;stroke-linejoin:miter;stroke-miterlimit:4;stroke-opacity:1;stroke-dasharray:none"
             id="path3819"
             sodipodi:cx="250"
             sodipodi:cy="319.50504"
             sodipodi:rx="147.14285"
             sodipodi:ry="181.42857"
             d="m 397.14285,319.50504 c 0,100.20023 -65.8781,181.42857 -147.14285,181.42857 -81.26475,0 -147.14285,-81.22834 -147.14285,-181.42857 0,-100.20024 65.8781,-181.42858 147.14285,-181.42858 81.26475,0 147.14285,81.22834 147.14285,181.42858 z"
             transform="matrix(-0.60555926,-0.26958041,-0.30014264,0.69101762,803.66158,80.615734)" />
        </g>
        <path
           style="opacity:0.99288252;fill:#00ff00;fill-opacity:1;stroke:#f73550;stroke-width:14.46312428;stroke-linecap:round;stroke-linejoin:round;stroke-miterlimit:4;stroke-opacity:1;stroke-dasharray:none;stroke-dashoffset:0"
           d="m 623.81564,143.06095 c 13.08995,4.11882 -4.72233,10.15561 -2.86955,14.97186 0.4367,1.1352 2.11302,1.75424 2.54973,2.88944 0.46089,1.19805 -2.15593,8.77982 -1.91303,9.98123 0.23751,1.17471 2.11304,1.75424 2.54973,2.88945 0.61761,1.60543 -1.5741,3.3852 -0.95651,4.99062 0.43671,1.1352 2.11303,1.75422 2.54974,2.88942 0.30879,0.80272 -0.78707,1.69261 -0.47828,2.49532 0.43671,1.1352 2.11304,1.75424 2.54975,2.88944 0.82859,2.15389 -2.26336,5.33203 -1.43478,7.48593 0.43671,1.1352 2.11303,1.75423 2.54974,2.88943 0.54919,1.4276 -2.75258,10.68962 -2.3913,12.47655 0.23752,1.1747 2.11303,1.75424 2.54974,2.88944 0.61759,1.60542 -1.29239,3.32936 -0.95651,4.99061 0.37553,1.85736 1.86991,3.50915 2.07146,5.38476 0.18029,1.67759 -0.63767,3.32707 -0.95651,4.99061 -0.95651,4.99063 -1.91302,9.98126 -2.86953,14.97188 -0.95651,4.99061 -1.91304,9.98124 -2.86955,14.97186 -0.47825,2.4953 -0.0235,5.2433 -1.43476,7.48593 -0.66527,1.05719 -2.66622,1.13216 -3.50623,2.10119 -0.59399,0.68521 -0.31884,1.66355 -0.47826,2.49531 -0.15942,0.83178 -0.31884,1.66354 -0.47825,2.49531 -0.95651,4.99063 -1.91304,9.98125 -2.86955,14.97186 -0.15941,0.83177 -0.31882,1.66355 -0.47825,2.49532 -0.15942,0.83177 0.11577,1.8101 -0.47826,2.49531 -0.84001,0.96902 -2.66623,1.13216 -3.50624,2.10118 -0.59397,0.68521 0.34817,2.00006 -0.47826,2.49532 -0.82642,0.49525 -2.20154,-0.88938 -3.02797,-0.39413 -1.65286,0.99052 0.23143,3.62022 -0.95651,4.99062 -0.38137,0.43994 -13.39958,8.24137 -14.02496,8.40476 -0.97407,0.25447 -2.05394,-0.6486 -3.02801,-0.39412 -1.37751,0.35988 -2.12869,1.7413 -3.50622,2.10118 -0.97407,0.25447 -2.20156,-0.88938 -3.02799,-0.39413 -0.82643,0.49526 0.34817,2.00006 -0.47826,2.49532 -0.82643,0.49526 -2.0539,-0.6486 -3.02797,-0.39412 -2.75508,0.71976 -4.25741,3.48261 -7.01249,4.20237 -0.97406,0.25447 -2.05392,-0.6486 -3.02799,-0.39412 -3.92052,1.02423 -6.59819,5.27933 -10.51871,6.30356 -0.97407,0.25448 -2.20156,-0.88938 -3.02799,-0.39413 -0.82643,0.49525 0.34817,2.00007 -0.47826,2.49533 -0.82642,0.49524 -2.05392,-0.64861 -3.02797,-0.39413 -1.37755,0.35988 -2.12871,1.74131 -3.50624,2.10118 -0.97407,0.25448 -2.05393,-0.64859 -3.02799,-0.39412 -2.75507,0.71976 -4.25741,3.48262 -7.01248,4.20237 -0.97406,0.25448 -2.20156,-0.88938 -3.02798,-0.39412 -1.65286,0.9905 0.69634,4.00012 -0.95651,4.99062 -0.82643,0.49525 -2.05393,-0.6486 -3.02799,-0.39412 -1.37753,0.35988 -2.33749,1.40079 -3.50625,2.10119 -1.16874,0.70039 -2.66623,1.13216 -3.50623,2.10118 -0.59396,0.68521 0.11563,1.81012 -0.47825,2.49533 -0.84001,0.96901 -2.66624,1.13216 -3.50624,2.10118 -0.59399,0.6852 0.34817,2.00005 -0.47828,2.49531 -0.82642,0.49526 -2.20154,-0.88938 -3.02797,-0.39412 -0.82644,0.49525 0.34817,2.00004 -0.47825,2.4953 -0.82645,0.49527 -2.20156,-0.88938 -3.02799,-0.39412 -0.82643,0.49527 0.11577,1.8101 -0.47826,2.49531 -4.77062,5.50338 -5.75457,-2.36077 -7.01249,4.20238"
           id="path5353"
           inkscape:connector-curvature="0" />
      </g>
      <path
         inkscape:connector-curvature="0"
         id="path5400"
         d="m -470.7311,383.6412 c 0,2.69374 0.65333,5.46791 0,8.08122 -0.16333,0.65333 -1.34687,0 -2.0203,0 -0.67344,0 -2.18364,0.65333 -2.02031,0 0.73045,-2.92177 6.89776,-7.12884 4.04061,-8.08122 -3.72525,-1.24176 -6.58931,4.30481 -10.10152,6.06091 -2.36899,1.1845 -2.39787,-1.19893 -4.04061,-2.0203 -0.60234,-0.30117 -1.41797,0.30117 -2.02031,0 -0.85183,-0.42592 -1.16847,-1.59439 -2.0203,-2.02031 -0.60234,-0.30117 -1.54412,0.47619 -2.02031,0 -0.47619,-0.47619 0,-1.34687 0,-2.0203 0,-0.48998 -0.065,-5.99595 0,-6.06092 0.47619,-0.47619 1.54412,0.47619 2.02031,0 0.47619,-0.47619 -0.47619,-1.54411 0,-2.0203 0.95238,-0.95238 3.08823,0.95238 4.04061,0 0.47619,-0.47619 -0.47619,-1.54412 0,-2.02031 0.47619,-0.47619 1.41797,0.30117 2.0203,0 0.85184,-0.42592 1.09636,-1.78932 2.02031,-2.0203 1.95998,-0.49 4.04061,0 6.06091,0 4.04061,0 8.08122,0 12.12183,0 0.74193,0 7.99993,-0.0813 8.08123,0 0.95238,0.95238 -0.95239,3.08823 0,4.04061 0.47619,0.47619 1.54411,-0.47619 2.0203,0 0.95238,0.95238 -0.95238,3.08823 0,4.04061 0.47619,0.47619 1.54411,-0.47619 2.02031,0 0.065,0.065 0,5.57093 0,6.06091 0,10.10153 0,20.20305 0,30.30458 0,2.69374 0,5.38748 0,8.08122 0,0.67343 0,1.34687 0,2.0203 0,0.67344 0.67343,2.02031 0,2.02031 -0.67344,0 0,-2.69374 0,-2.02031 0,1.34687 0,2.69374 0,4.04061 0,0.67344 0.47619,1.54412 0,2.02031 -0.4762,0.47619 -1.54412,-0.47619 -2.02031,0 -0.95238,0.95238 0.60234,2.83593 0,4.04061 -2.4965,4.99299 -2.0203,-0.69737 -2.0203,4.04061 0,0.67343 0,1.34687 0,2.0203 0,0.67344 0.47619,1.54412 0,2.02031 -0.4762,0.47619 -2.02031,0.67344 -2.02031,0 0,-0.67343 2.02031,-0.67343 2.02031,0 0,0.95238 -1.59439,1.16847 -2.02031,2.02031 -0.30117,0.60233 0,1.34687 0,2.0203 0,0.67344 0,1.34687 0,2.02031 0,0.67343 0,1.34687 0,2.0203 0,0.67344 0.67343,2.02031 0,2.02031 -0.67344,0 0,-2.69374 0,-2.02031 0,4.04061 0,8.08122 0,12.12183 0,0.67344 0,1.34687 0,2.02031 0,0.67343 -0.30117,1.41796 0,2.0203 0.42592,0.85184 1.59439,1.16847 2.02031,2.02031 0.26117,0.52235 0,10.68983 0,12.12183 0,4.71404 0,9.42809 0,14.14213 0,0.67344 0.47619,1.54412 0,2.02031 -0.4762,0.47619 -1.54412,-0.47619 -2.02031,0 -1.01015,1.01015 1.01015,5.05076 0,6.06091 -0.47619,0.47619 -1.54411,-0.47619 -2.02031,0 -0.95238,0.95238 0.95239,3.08823 0,4.04061 -0.47619,0.47619 -1.54411,-0.47619 -2.0203,0 -2.69374,2.69374 3.36717,2.02031 -2.02031,2.02031"
         style="opacity:0.99288252;fill:none;stroke:#000000;stroke-width:5.4000001;stroke-linecap:butt;stroke-linejoin:miter;stroke-miterlimit:4;stroke-opacity:1;stroke-dasharray:none;stroke-dashoffset:0" />
      <g
         transform="translate(-848.52813,244.45692)"
         id="g5361">
        <path
           transform="matrix(0.91540645,-0.40253079,0.45371696,1.0318104,-148.87036,-3.6031076)"
           d="m 397.14285,319.50504 c 0,100.20023 -65.8781,181.42857 -147.14285,181.42857 -81.26475,0 -147.14285,-81.22834 -147.14285,-181.42857 0,-100.20024 65.8781,-181.42858 147.14285,-181.42858 81.26475,0 147.14285,81.22834 147.14285,181.42858 z"
           sodipodi:ry="181.42857"
           sodipodi:rx="147.14285"
           sodipodi:cy="319.50504"
           sodipodi:cx="250"
           id="path3005"
           style="fill:#0000ff;fill-rule:evenodd;stroke:#000000;stroke-width:4.7679224;stroke-linecap:butt;stroke-linejoin:miter;stroke-miterlimit:4;stroke-opacity:1;stroke-dasharray:none"
           sodipodi:type="arc" />
        <path
           sodipodi:type="arc"
           style="fill:#000000;fill-rule:evenodd;stroke:#000000;stroke-width:4.7679224;stroke-linecap:butt;stroke-linejoin:miter;stroke-miterlimit:4;stroke-opacity:1;stroke-dasharray:none"
           id="path3817"
           sodipodi:cx="250"
           sodipodi:cy="319.50504"
           sodipodi:rx="147.14285"
           sodipodi:ry="181.42857"
           d="m 397.14285,319.50504 c 0,100.20023 -65.8781,181.42857 -147.14285,181.42857 -81.26475,0 -147.14285,-81.22834 -147.14285,-181.42857 0,-100.20024 65.8781,-181.42858 147.14285,-181.42858 81.26475,0 147.14285,81.22834 147.14285,181.42858 z"
           transform="matrix(0.60555926,-0.26958041,0.30014264,0.69101762,-22.340792,72.044306)" />
        <path
           style="opacity:0.99288252;fill:#00ff00;fill-opacity:1;stroke:#f73550;stroke-width:12.82182884;stroke-linecap:round;stroke-linejoin:round;stroke-miterlimit:4;stroke-opacity:1;stroke-dasharray:none;stroke-dashoffset:0"
           d="m 153.58397,129.99322 c 1.00047,11.54764 -12.55336,12.78016 -16.43246,22.22306 -0.60381,1.46983 0,11.15072 0,13.33384 0,5.18538 0,10.37076 0,15.55615 0,1.46029 -0.51507,5.41309 0,6.66691 0.64552,1.57141 2.09322,2.87322 2.73875,4.44462 0.28869,0.70276 -0.28869,1.51955 0,2.2223 1.29106,3.14282 4.18643,5.74642 5.47749,8.88924 0.28869,0.70274 -0.40828,1.55973 0,2.2223 1.47203,2.38891 3.78398,4.37666 5.47748,6.66693 1.05027,1.42035 1.82583,2.96307 2.73874,4.4446 7.75844,12.59089 -1.02066,-3.31282 2.73874,8.88923 0.4951,1.60695 1.82583,2.96307 2.73875,4.44461 0.91291,1.48155 1.82582,2.96308 2.73874,4.44462 0.91292,1.48154 1.29529,3.27335 2.73873,4.44461 1.44346,1.17126 4.03406,1.05105 5.4775,2.22231 1.44345,1.17126 1.82583,2.96307 2.73874,4.44461 0.91291,1.48153 1.82583,2.96307 2.73874,4.4446 0.91292,1.48155 1.82583,2.96309 2.73875,4.44462 0.91292,1.48154 2.24365,2.83766 2.73873,4.44461 0.44285,1.43731 0,2.96308 0,4.44462 0.91292,1.48154 2.09323,2.8732 2.73875,4.44461 0.2887,0.70276 -0.40826,1.55975 0,2.22231 6.26708,10.17063 -1.13511,-9.43018 5.4775,6.66692 0.28868,0.70276 -0.64554,1.6985 0,2.22231 0.64552,0.5238 2.09321,-0.52381 2.73872,0 0.64554,0.5238 -0.64551,1.69849 0,2.22229 5.66657,4.59805 -0.22149,-7.02639 5.4775,2.22232 0.40827,0.66257 -0.40827,1.55974 0,2.2223 0.57738,0.93702 2.16136,1.2853 2.73874,2.22231 1.09551,1.77784 -1.09549,4.88908 0,6.66692 0.40827,0.66257 2.09322,-0.5238 2.73873,0 0.64554,0.5238 -0.40826,1.55974 0,2.22231 0.36359,0.59004 7.48909,6.3719 8.21624,6.66692 0.81654,0.33128 1.92222,-0.33129 2.73875,0 1.15476,0.4685 1.58399,1.7538 2.73875,2.22231 0.81654,0.33128 1.82582,0 2.73873,0 1.82583,0 3.74535,-0.46851 5.47749,0 1.2248,0.33128 1.58398,1.7538 2.73874,2.2223 1.63308,0.66256 3.84441,-0.66256 5.47749,0 1.15476,0.4685 1.58399,1.7538 2.73874,2.22231 0.81653,0.33128 1.92221,-0.33128 2.73874,0 0.72717,0.29502 7.85266,6.07687 8.21624,6.66691 0.40826,0.66257 -0.40826,1.55975 0,2.22231 0.57736,0.93701 1.82583,1.48154 2.73874,2.2223 0.91292,0.74079 1.58398,1.75382 2.73876,2.22232 0.81651,0.33128 1.92219,-0.33129 2.73872,0 1.15477,0.46851 1.58399,1.75381 2.73875,2.22231 0.81653,0.33127 1.92219,-0.33128 2.73873,0 6.05553,2.45682 0.84988,1.37925 2.73876,4.44461 0.57738,0.937 1.82582,1.48155 2.73874,2.22231"
           id="path5355"
           inkscape:connector-curvature="0" />
      </g>
      <path
         inkscape:connector-curvature="0"
         id="path5402"
         d="m -398.0001,393.74275 c 2.69374,1.34687 9.42809,1.34687 8.08122,4.04061 -1.34687,2.69374 -10.2108,-1.91102 -8.08122,-4.04061 2.42811,-2.42811 6.71439,1.45578 10.10153,2.0203 0.66427,0.11071 1.34687,0 2.0203,0 0.67344,0 1.54412,0.47619 2.02031,0 0.47619,-0.47619 0,-1.34687 0,-2.0203 0,-6.16007 -2.04763,-0.0273 -4.04061,-2.02031 -0.47619,-0.47619 0.66036,-2.15237 0,-2.0203 -3.55613,0.71122 -8.08987,7.05809 -10.10153,4.04061 -2.17817,-3.26727 4.30482,-6.58932 6.06092,-10.10153 1.79583,-3.59165 -1.12239,-1.12239 -2.02031,-2.0203 -0.065,-0.065 0,-5.57094 0,-6.06092 0,-6.16006 -2.04762,-0.0273 -4.04061,-2.0203 -0.47619,-0.47619 0.47619,-1.54412 0,-2.02031 -0.47619,-0.47619 -1.34687,0 -2.0203,0 -3.36718,0 -6.73435,0 -10.10153,0 -0.48997,0 -5.99594,-0.065 -6.06091,0 -0.47619,0.47619 0.47619,1.54412 0,2.02031 -0.47619,0.47619 -1.54412,-0.47619 -2.02031,0 -0.47619,0.47619 0.47619,1.54411 0,2.0203 -0.47619,0.47619 -1.54411,-0.47619 -2.0203,0 -0.47619,0.47619 0.47619,1.54412 0,2.02031 -0.95238,0.95238 -3.08823,-0.95238 -4.04061,0 -0.95238,0.95238 0.95238,3.08823 0,4.04061 -0.47619,0.47619 -1.54412,-0.47619 -2.02031,0 -0.47619,0.47619 0.30117,1.41796 0,2.0203 -0.42591,0.85184 -1.59438,1.16847 -2.0203,2.02031 -0.60234,1.20467 0.95238,3.08823 0,4.04061 -0.47619,0.47619 -1.54412,-0.47619 -2.02031,0 -0.95238,0.95238 0.95238,3.08823 0,4.04061 -0.47619,0.47619 -1.54411,-0.47619 -2.0203,0 -0.48615,0.48614 0.48615,7.59507 0,8.08122 -0.47619,0.47619 -1.54412,-0.47619 -2.02031,0 -0.47619,0.47619 0,1.34687 0,2.0203 0,0.67344 0,1.34687 0,2.02031 0,6.73435 0,13.4687 0,20.20305 0,1.05646 0.26561,7.55 0,8.08122 -0.42592,0.85183 -1.59438,1.16847 -2.0203,2.0203 -0.60234,1.20468 0.60234,2.83594 0,4.04061 -0.42592,0.85184 -1.59439,1.16847 -2.02031,2.02031 -0.61338,1.22677 0.61339,10.89506 0,12.12183 -0.42592,0.85183 -1.59439,1.16847 -2.0203,2.0203 -0.36531,0.73061 0,8.69633 0,10.10153 0,13.4687 0,26.9374 0,40.4061 0,0.48998 0.065,5.99594 0,6.06092 -0.47619,0.47619 -1.54412,-0.47619 -2.02031,0 -0.62558,0.62558 0.62558,9.47594 0,10.10152 -0.47619,0.47619 -1.54411,-0.47619 -2.0203,0 -1.01016,1.01016 1.01015,5.05077 0,6.06092 -0.47619,0.47619 -1.34687,0 -2.02031,0"
         style="opacity:0.99288252;fill:none;stroke:#000000;stroke-width:5.4000001;stroke-linecap:butt;stroke-linejoin:miter;stroke-miterlimit:4;stroke-opacity:1;stroke-dasharray:none;stroke-dashoffset:0" />
      <rect
         y="440.20972"
         x="-606.09149"
         height="339.41101"
         width="349.51279"
         id="rect5357"
         style="fill:#f9f9f9;fill-opacity:1;stroke:none" />
    </g>
  </g>
</svg>
