<?xml version="1.0" encoding="UTF-8" standalone="no"?>
<!-- Created with Inkscape (http://www.inkscape.org/) -->

<svg
   xmlns:dc="http://purl.org/dc/elements/1.1/"
   xmlns:cc="http://creativecommons.org/ns#"
   xmlns:rdf="http://www.w3.org/1999/02/22-rdf-syntax-ns#"
   xmlns:svg="http://www.w3.org/2000/svg"
   xmlns="http://www.w3.org/2000/svg"
   xmlns:sodipodi="http://sodipodi.sourceforge.net/DTD/sodipodi-0.dtd"
   xmlns:inkscape="http://www.inkscape.org/namespaces/inkscape"
   width="744.09448819"
   height="1052.3622047"
   id="svg2"
   version="1.1"
   inkscape:version="0.48.1 r9760"
   sodipodi:docname="plosurin.svg"
   inkscape:export-filename="/tmp/plosurin/art/plosurin-logo-175.png"
   inkscape:export-xdpi="20"
   inkscape:export-ydpi="20">
  <defs
     id="defs4" />
  <sodipodi:namedview
     id="base"
     pagecolor="#ffffff"
     bordercolor="#666666"
     borderopacity="1.0"
     inkscape:pageopacity="0.0"
     inkscape:pageshadow="2"
     inkscape:zoom="0.49497475"
     inkscape:cx="411.43898"
     inkscape:cy="691.70038"
     inkscape:document-units="px"
     inkscape:current-layer="layer1"
     showgrid="false" />
  <metadata
     id="metadata7">
    <rdf:RDF>
      <cc:Work
         rdf:about="">
        <dc:format>image/svg+xml</dc:format>
        <dc:type
           rdf:resource="http://purl.org/dc/dcmitype/StillImage" />
        <dc:title></dc:title>
      </cc:Work>
    </rdf:RDF>
  </metadata>
  <g
     inkscape:label="Layer 1"
     inkscape:groupmode="layer"
     id="layer1">
    <g
       id="g3168"
       inkscape:export-filename="/tmp/plosurin-logo-300.png"
       inkscape:export-xdpi="38.244713"
       inkscape:export-ydpi="38.244713">
      <g
         inkscape:export-ydpi="22.367079"
         inkscape:export-xdpi="22.367079"
         inkscape:export-filename="/tmp/plosurin/art/plosurin-logo-175.png"
         transform="translate(8.0812209,-18.182746)"
         id="g3155">
        <path
           sodipodi:type="arc"
           style="fill:#ffff00;fill-rule:evenodd;stroke:#000000;stroke-width:5;stroke-linecap:butt;stroke-linejoin:miter;stroke-miterlimit:4;stroke-opacity:1;stroke-dasharray:none"
           id="path2989"
           sodipodi:cx="175.71428"
           sodipodi:cy="333.79074"
           sodipodi:rx="112.85714"
           sodipodi:ry="112.85714"
           d="m 288.57142,333.79074 c 0,62.32928 -50.52786,112.85714 -112.85714,112.85714 -62.32928,0 -112.85714,-50.52786 -112.85714,-112.85714 0,-62.32928 50.52786,-112.85714 112.85714,-112.85714 62.32928,0 112.85714,50.52786 112.85714,112.85714 z"
           transform="matrix(1.2104544,0,0,1.1836022,-3.303278,178.60143)" />
        <g
           id="g3150">
          <g
             transform="translate(-62.629456,34.345169)"
             id="g5337">
            <path
               sodipodi:type="arc"
               style="opacity:0.99288252;fill:#f73550;fill-opacity:1;stroke:#f73550;stroke-width:10.5;stroke-linecap:round;stroke-linejoin:round;stroke-miterlimit:4;stroke-opacity:1;stroke-dasharray:none;stroke-dashoffset:0"
               id="path5331"
               sodipodi:cx="-647.50775"
               sodipodi:cy="814.97632"
               sodipodi:rx="53.538086"
               sodipodi:ry="53.538086"
               d="m -593.96967,814.97632 c 0,29.56827 -23.96981,53.53808 -53.53808,53.53808 -29.56827,0 -53.53809,-23.96981 -53.53809,-53.53808 0,-29.56827 23.96982,-53.53809 53.53809,-53.53809 29.56827,0 53.53808,23.96982 53.53808,53.53809 z"
               transform="matrix(1.2757728,0,0,1.2569048,1103.8647,-497.26485)" />
            <path
               sodipodi:type="arc"
               style="opacity:0.99288252;fill:#0000ff;fill-opacity:1;stroke:#0000ff;stroke-width:10.5;stroke-linecap:round;stroke-linejoin:round;stroke-miterlimit:4;stroke-opacity:1;stroke-dasharray:none;stroke-dashoffset:0"
               id="path5313"
               sodipodi:cx="68.571426"
               sodipodi:cy="670.93359"
               sodipodi:rx="40"
               sodipodi:ry="38.57143"
               d="m 108.57143,670.93359 c 0,21.30242 -17.908614,38.57143 -40.000004,38.57143 -22.09139,0 -40,-17.26901 -40,-38.57143 0,-21.30241 17.90861,-38.57143 40,-38.57143 22.09139,0 40.000004,17.26902 40.000004,38.57143 z"
               transform="matrix(0.67604687,0.43707974,-0.60378688,0.93389876,637.90657,-141.43749)"
               inkscape:transform-center-x="-20.203051" />
          </g>
        </g>
      </g>
      <g
         inkscape:export-ydpi="22.367079"
         inkscape:export-xdpi="22.367079"
         inkscape:export-filename="/tmp/plosurin/art/plosurin-logo-175.png"
         transform="translate(-20.203051,-28.284271)"
         id="g3144">
        <path
           transform="matrix(-1.2366267,0,0,1.2187252,764.45932,176.97922)"
           d="m 288.57142,333.79074 c 0,62.32928 -50.52786,112.85714 -112.85714,112.85714 -62.32928,0 -112.85714,-50.52786 -112.85714,-112.85714 0,-62.32928 50.52786,-112.85714 112.85714,-112.85714 62.32928,0 112.85714,50.52786 112.85714,112.85714 z"
           sodipodi:ry="112.85714"
           sodipodi:rx="112.85714"
           sodipodi:cy="333.79074"
           sodipodi:cx="175.71428"
           id="path3013"
           style="fill:#00ff00;fill-rule:evenodd;stroke:#000000;stroke-width:5;stroke-linecap:butt;stroke-linejoin:miter;stroke-miterlimit:4;stroke-opacity:1;stroke-dasharray:none"
           sodipodi:type="arc" />
        <g
           id="g5349"
           transform="translate(30.304582,46.467002)">
          <path
             sodipodi:type="arc"
             style="opacity:0.99288252;fill:#f73550;fill-opacity:1;stroke:#f73550;stroke-width:10.5;stroke-linecap:round;stroke-linejoin:round;stroke-miterlimit:4;stroke-opacity:1;stroke-dasharray:none;stroke-dashoffset:0"
             id="path5343"
             sodipodi:cx="-647.50775"
             sodipodi:cy="814.97632"
             sodipodi:rx="53.538086"
             sodipodi:ry="53.538086"
             d="m -593.96967,814.97632 c 0,29.56827 -23.96981,53.53808 -53.53808,53.53808 -29.56827,0 -53.53809,-23.96981 -53.53809,-53.53808 0,-29.56827 23.96982,-53.53809 53.53809,-53.53809 29.56827,0 53.53808,23.96982 53.53808,53.53809 z"
             transform="matrix(1.2757728,0,0,1.2569048,1336.1998,-499.28516)" />
          <path
             inkscape:transform-center-y="-16.874749"
             sodipodi:type="arc"
             style="opacity:0.99288252;fill:#0000ff;fill-opacity:1;stroke:#0000ff;stroke-width:10.5;stroke-linecap:round;stroke-linejoin:round;stroke-miterlimit:4;stroke-opacity:1;stroke-dasharray:none;stroke-dashoffset:0"
             id="path5345"
             sodipodi:cx="68.571426"
             sodipodi:cy="670.93359"
             sodipodi:rx="40"
             sodipodi:ry="38.57143"
             d="m 108.57143,670.93359 c 0,21.30242 -17.908614,38.57143 -40.000004,38.57143 -22.09139,0 -40,-17.26901 -40,-38.57143 0,-21.30241 17.90861,-38.57143 40,-38.57143 22.09139,0 40.000004,17.26902 40.000004,38.57143 z"
             transform="matrix(0.73680469,-0.32434074,0.44804795,1.0178303,151.26986,-150.29121)"
             inkscape:transform-center-x="-11.108834" />
        </g>
      </g>
      <g
         inkscape:export-ydpi="22.367079"
         inkscape:export-xdpi="22.367079"
         inkscape:export-filename="/tmp/plosurin/art/plosurin-logo-175.png"
         transform="translate(-34.345171,36.36549)"
         id="g5366">
        <g
           id="g3827" />
        <g
           transform="translate(12.12183,4.0406102)"
           id="g3081">
          <path
             sodipodi:type="arc"
             style="fill:#ff0000;fill-rule:evenodd;stroke:#000000;stroke-width:4.7679224;stroke-linecap:butt;stroke-linejoin:miter;stroke-miterlimit:4;stroke-opacity:1;stroke-dasharray:none"
             id="path3015"
             sodipodi:cx="250"
             sodipodi:cy="319.50504"
             sodipodi:rx="167.99808"
             sodipodi:ry="143.16739"
             d="m 417.99808,319.50504 c 0,79.06916 -75.2153,143.16738 -167.99808,143.16738 -92.78278,0 -167.998077,-64.09822 -167.998077,-143.16738 0,-79.06917 75.215297,-143.16739 167.998077,-143.16739 92.78278,0 167.99808,64.09822 167.99808,143.16739 z"
             transform="matrix(-0.91540645,-0.40253079,-0.45371696,1.0318104,938.76257,-3.603108)" />
          <path
             transform="matrix(-0.60555926,-0.26958041,-0.30014264,0.69101762,803.66158,80.61573)"
             d="m 397.14285,319.50504 c 0,100.20023 -65.8781,181.42857 -147.14285,181.42857 -81.26475,0 -147.14285,-81.22834 -147.14285,-181.42857 0,-100.20024 65.8781,-181.42858 147.14285,-181.42858 81.26475,0 147.14285,81.22834 147.14285,181.42858 z"
             sodipodi:ry="181.42857"
             sodipodi:rx="147.14285"
             sodipodi:cy="319.50504"
             sodipodi:cx="250"
             id="path3819"
             style="fill:#000000;fill-rule:evenodd;stroke:#000000;stroke-width:4.7679224;stroke-linecap:butt;stroke-linejoin:miter;stroke-miterlimit:4;stroke-opacity:1;stroke-dasharray:none"
             sodipodi:type="arc" />
          <path
             inkscape:connector-curvature="0"
             id="path5353"
             d="m 616.8872,140.56457 c 11.70493,4.01967 -4.22267,9.91114 -2.56593,14.61146 0.39049,1.10787 1.88945,1.71201 2.27995,2.81988 0.41212,1.16921 -1.92782,8.56848 -1.71062,9.74097 0.21238,1.14643 1.88947,1.71201 2.27995,2.81989 0.55226,1.56679 -1.40755,3.30371 -0.8553,4.87049 0.3905,1.10787 1.88945,1.71199 2.27995,2.81986 0.27612,0.7834 -0.70379,1.65187 -0.42767,2.43526 0.3905,1.10787 1.88946,1.71201 2.27997,2.81988 0.74092,2.10205 -2.02388,5.20368 -1.28297,7.30573 0.3905,1.10788 1.88945,1.71201 2.27996,2.81988 0.49108,1.39323 -2.46134,10.4323 -2.13829,12.17622 0.21239,1.14642 1.88946,1.71201 2.27996,2.81988 0.55225,1.56678 -1.15564,3.24922 -0.8553,4.87048 0.33579,1.81265 1.67206,3.42468 1.85228,5.25514 0.16122,1.6372 -0.5702,3.24698 -0.8553,4.87047 -0.85531,4.8705 -1.71061,9.741 -2.56591,14.61148 -0.85531,4.87048 -1.71063,9.74098 -2.56593,14.61146 -0.42765,2.43524 -0.021,5.11709 -1.28296,7.30573 -0.59487,1.03174 -2.38411,1.10491 -3.13524,2.05061 -0.53114,0.66872 -0.2851,1.62351 -0.42766,2.43525 -0.14255,0.81175 -0.2851,1.62349 -0.42764,2.43524 -0.85531,4.8705 -1.71063,9.74098 -2.56593,14.61146 -0.14255,0.81175 -0.28509,1.6235 -0.42765,2.43525 -0.14255,0.81175 0.10352,1.76653 -0.42766,2.43524 -0.75113,0.9457 -2.38412,1.10491 -3.13525,2.05061 -0.53112,0.66871 0.31133,1.95191 -0.42766,2.43525 -0.73897,0.48333 -1.9686,-0.86797 -2.70758,-0.38464 -1.47798,0.96667 0.20694,3.53307 -0.85531,4.87048 -0.34102,0.42935 -11.9818,8.04299 -12.54101,8.20244 -0.87101,0.24835 -1.83662,-0.63298 -2.70762,-0.38463 -1.23176,0.35122 -1.90346,1.69939 -3.13524,2.0506 -0.871,0.24835 -1.96862,-0.86797 -2.7076,-0.38464 -0.73899,0.48334 0.31133,1.95191 -0.42766,2.43525 -0.73899,0.48334 -1.83658,-0.63298 -2.70759,-0.38463 -2.46357,0.70243 -3.80694,3.39878 -6.27051,4.10121 -0.871,0.24835 -1.8366,-0.63299 -2.70761,-0.38463 -3.5057,0.99957 -5.90005,5.15224 -9.40575,6.15182 -0.871,0.24835 -1.96862,-0.86797 -2.7076,-0.38464 -0.73899,0.48333 0.31133,1.95192 -0.42766,2.43526 -0.73898,0.48332 -1.8366,-0.633 -2.70759,-0.38464 -1.23179,0.35121 -1.90347,1.69939 -3.13525,2.0506 -0.87101,0.24835 -1.83661,-0.63298 -2.70761,-0.38463 -2.46356,0.70243 -3.80694,3.39878 -6.2705,4.10121 -0.871,0.24835 -1.96862,-0.86797 -2.7076,-0.38464 -1.47797,0.96666 0.62266,3.90383 -0.8553,4.87049 -0.73899,0.48333 -1.83661,-0.63299 -2.70761,-0.38463 -1.23178,0.35121 -2.09016,1.36707 -3.13526,2.05061 -1.04508,0.68353 -2.38412,1.1049 -3.13524,2.0506 -0.53112,0.66871 0.10339,1.76655 -0.42765,2.43526 -0.75113,0.94569 -2.38413,1.10491 -3.13526,2.0506 -0.53114,0.66871 0.31134,1.95191 -0.42767,2.43525 -0.73898,0.48333 -1.9686,-0.86798 -2.70759,-0.38464 -0.73899,0.48333 0.31133,1.9519 -0.42764,2.43524 -0.73901,0.48334 -1.96862,-0.86797 -2.70761,-0.38464 -0.73899,0.48335 0.10352,1.76653 -0.42766,2.43525 -4.26585,5.3709 -5.14569,-2.30395 -6.27051,4.10122"
             style="opacity:0.99288252;fill:#00ff00;fill-opacity:1;stroke:#f73550;stroke-width:13.51096916;stroke-linecap:round;stroke-linejoin:round;stroke-miterlimit:4;stroke-opacity:1;stroke-dasharray:none;stroke-dashoffset:0" />
        </g>
      </g>
      <path
         inkscape:export-ydpi="22.367079"
         inkscape:export-xdpi="22.367079"
         inkscape:export-filename="/tmp/plosurin/art/plosurin-logo-175.png"
         inkscape:connector-curvature="0"
         id="path5400"
         d="m 329.30972,165.44825 c 0,2.69374 0.65333,5.46791 0,8.08122 -0.16333,0.65333 -1.34687,0 -2.0203,0 -0.67344,0 -2.18364,0.65333 -2.02031,0 0.73045,-2.92177 6.89776,-7.12884 4.04061,-8.08122 -3.72525,-1.24176 -6.58931,4.30481 -10.10152,6.06091 -2.36899,1.1845 -2.39787,-1.19893 -4.04061,-2.0203 -0.60234,-0.30117 -1.41797,0.30117 -2.02031,0 -0.85183,-0.42592 -1.16847,-1.59439 -2.0203,-2.02031 -0.60234,-0.30117 -1.54412,0.47619 -2.02031,0 -0.47619,-0.47619 0,-1.34687 0,-2.0203 0,-0.48998 -0.065,-5.99595 0,-6.06092 0.47619,-0.47619 1.54412,0.47619 2.02031,0 0.47619,-0.47619 -0.47619,-1.54411 0,-2.0203 0.95238,-0.95238 3.08823,0.95238 4.04061,0 0.47619,-0.47619 -0.47619,-1.54412 0,-2.02031 0.47619,-0.47619 1.41797,0.30117 2.0203,0 0.85184,-0.42592 1.09636,-1.78932 2.02031,-2.0203 1.95998,-0.49 4.04061,0 6.06091,0 4.04061,0 8.08122,0 12.12183,0 0.74193,0 7.99993,-0.0813 8.08123,0 0.95238,0.95238 -0.95239,3.08823 0,4.04061 0.47619,0.47619 1.54411,-0.47619 2.0203,0 0.95238,0.95238 -0.95238,3.08823 0,4.04061 0.47619,0.47619 1.54411,-0.47619 2.02031,0 0.065,0.065 0,5.57093 0,6.06091 0,10.10153 0,20.20305 0,30.30458 0,2.69374 0,5.38748 0,8.08122 0,0.67343 0,1.34687 0,2.0203 0,0.67344 0.67343,2.02031 0,2.02031 -0.67344,0 0,-2.69374 0,-2.02031 0,1.34687 0,2.69374 0,4.04061 0,0.67344 0.47619,1.54412 0,2.02031 -0.4762,0.47619 -1.54412,-0.47619 -2.02031,0 -0.95238,0.95238 0.60234,2.83593 0,4.04061 -2.4965,4.99299 -2.0203,-0.69737 -2.0203,4.04061 0,0.67343 0,1.34687 0,2.0203 0,0.67344 0.47619,1.54412 0,2.02031 -0.4762,0.47619 -2.02031,0.67344 -2.02031,0 0,-0.67343 2.02031,-0.67343 2.02031,0 0,0.95238 -1.59439,1.16847 -2.02031,2.02031 -0.30117,0.60233 0,1.34687 0,2.0203 0,0.67344 0,1.34687 0,2.02031 0,0.67343 0,1.34687 0,2.0203 0,0.67344 0.67343,2.02031 0,2.02031 -0.67344,0 0,-2.69374 0,-2.02031 0,4.04061 0,8.08122 0,12.12183 0,0.67344 0,1.34687 0,2.02031 0,0.67343 -0.30117,1.41796 0,2.0203 0.42592,0.85184 1.59439,1.16847 2.02031,2.02031 0.26117,0.52235 0,10.68983 0,12.12183 0,4.71404 0,9.42809 0,14.14213 0,0.67344 0.47619,1.54412 0,2.02031 -0.4762,0.47619 -1.54412,-0.47619 -2.02031,0 -1.01015,1.01015 1.01015,5.05076 0,6.06091 -0.47619,0.47619 -1.54411,-0.47619 -2.02031,0 -0.95238,0.95238 0.95239,3.08823 0,4.04061 -0.47619,0.47619 -1.54411,-0.47619 -2.0203,0 -2.69374,2.69374 3.36717,2.02031 -2.02031,2.02031"
         style="opacity:0.99288252;fill:none;stroke:#000000;stroke-width:5.4000001;stroke-linecap:butt;stroke-linejoin:miter;stroke-miterlimit:4;stroke-opacity:1;stroke-dasharray:none;stroke-dashoffset:0" />
      <g
         inkscape:export-ydpi="22.367079"
         inkscape:export-xdpi="22.367079"
         inkscape:export-filename="/tmp/plosurin/art/plosurin-logo-175.png"
         transform="translate(10.101525,-2.0203051)"
         id="g3162">
        <g
           id="g5361"
           transform="translate(-62.629446,42.426406)">
          <path
             sodipodi:type="arc"
             style="fill:#0000ff;fill-rule:evenodd;stroke:#000000;stroke-width:4.7679224;stroke-linecap:butt;stroke-linejoin:miter;stroke-miterlimit:4;stroke-opacity:1;stroke-dasharray:none"
             id="path3005"
             sodipodi:cx="250"
             sodipodi:cy="319.50504"
             sodipodi:rx="164.07634"
             sodipodi:ry="141.84145"
             d="m 414.07634,319.50504 c 0,78.33686 -73.45948,141.84144 -164.07634,141.84144 -90.61686,0 -164.07634,-63.50458 -164.07634,-141.84144 0,-78.33687 73.45948,-141.84145 164.07634,-141.84145 90.61686,0 164.07634,63.50458 164.07634,141.84145 z"
             transform="matrix(0.91540645,-0.40253079,0.45371696,1.0318104,-148.87036,-3.6031076)" />
          <path
             transform="matrix(0.60555926,-0.26958041,0.30014264,0.69101762,-22.340792,72.044306)"
             d="m 397.14285,319.50504 c 0,100.20023 -65.8781,181.42857 -147.14285,181.42857 -81.26475,0 -147.14285,-81.22834 -147.14285,-181.42857 0,-100.20024 65.8781,-181.42858 147.14285,-181.42858 81.26475,0 147.14285,81.22834 147.14285,181.42858 z"
             sodipodi:ry="181.42857"
             sodipodi:rx="147.14285"
             sodipodi:cy="319.50504"
             sodipodi:cx="250"
             id="path3817"
             style="fill:#000000;fill-rule:evenodd;stroke:#000000;stroke-width:4.7679224;stroke-linecap:butt;stroke-linejoin:miter;stroke-miterlimit:4;stroke-opacity:1;stroke-dasharray:none"
             sodipodi:type="arc" />
          <path
             inkscape:connector-curvature="0"
             id="path5355"
             d="m 169.71404,125.23252 c 0.42653,11.33395 -14.60523,11.63682 -19.44079,20.59316 -0.75269,1.39408 -0.65441,10.88024 -0.78253,13.01041 -0.30432,5.0596 -0.60864,10.1192 -0.91296,15.17881 -0.0857,1.42487 -0.88617,5.24761 -0.39126,6.5052 0.62023,1.57615 2.14167,2.94249 2.76192,4.51862 0.27739,0.70488 -0.40781,1.46354 -0.13042,2.1684 1.2405,3.15229 4.28333,5.88494 5.52383,9.03724 0.27739,0.70486 -0.54215,1.49479 -0.13042,2.1684 1.48449,2.42867 3.91954,4.52169 5.65425,6.86883 1.07583,1.4556 1.84129,3.0124 2.76191,4.51859 7.82411,12.80053 -0.93208,-3.30021 2.50108,8.85542 0.45214,1.60084 1.84128,3.01242 2.76193,4.51862 0.92064,1.50621 1.84126,3.01241 2.76191,4.51861 0.92065,1.50622 1.23751,3.27994 2.7619,4.51862 1.52441,1.23867 4.39073,1.29334 5.91512,2.53202 1.52441,1.23867 1.84128,3.0124 2.76192,4.51861 0.92063,1.50619 1.84128,3.0124 2.76191,4.51859 0.92064,1.50622 1.84128,3.01243 2.76193,4.51862 0.92063,1.50621 2.30978,2.91777 2.76191,4.51862 0.40442,1.43184 -0.1739,2.89121 -0.26085,4.33681 0.92064,1.5062 2.14169,2.94246 2.76193,4.5186 0.27739,0.70489 -0.54214,1.49483 -0.13043,2.16841 6.32011,10.33996 -0.6994,-9.27679 5.65428,6.86882 0.27736,0.70488 -0.81217,1.61446 -0.13042,2.16842 0.68171,0.55394 2.34102,-0.37215 3.02273,0.1818 0.68174,0.55395 -0.81213,1.61444 -0.13043,2.16838 5.98437,4.8627 0.16791,-6.87065 5.91513,2.53203 0.41172,0.67361 -0.54216,1.49481 -0.13042,2.1684 0.58226,0.95263 2.31007,1.39761 2.89233,2.35022 1.10478,1.80744 -1.49602,4.69776 -0.39127,6.5052 0.41172,0.6736 2.34104,-0.37214 3.02275,0.18181 0.68174,0.55396 -0.54213,1.49481 -0.13042,2.16841 0.36666,0.59987 7.89179,6.71449 8.67703,7.05063 0.88178,0.37745 2.141,-0.19565 3.02277,0.18181 1.24702,0.5338 1.64534,1.81641 2.89235,2.35022 0.88178,0.37744 2.01516,0.12121 3.02275,0.18181 2.01517,0.12121 4.16126,-0.20852 6.04553,0.36362 1.33236,0.40454 1.64531,1.81641 2.89232,2.3502 1.76356,0.75489 4.28199,-0.39129 6.04554,0.36362 1.24702,0.53379 1.64533,1.81641 2.89233,2.35021 0.88177,0.37745 2.141,-0.19564 3.02276,0.18181 0.78528,0.33614 8.31038,6.45076 8.67704,7.05062 0.41172,0.6736 -0.54214,1.49482 -0.13043,2.1684 0.58225,0.95261 1.92823,1.56682 2.89235,2.35022 0.96411,0.78342 1.64531,1.81642 2.89235,2.35022 0.88175,0.37744 2.14097,-0.19566 3.02274,0.18181 1.24702,0.5338 1.64534,1.81642 2.89235,2.35021 0.88177,0.37744 2.14097,-0.19564 3.02275,0.18181 6.53933,2.79922 0.85706,1.40221 2.76194,4.51861 0.58226,0.9526 1.92821,1.56681 2.89233,2.35021"
             style="opacity:0.99288252;fill:#00ff00;fill-opacity:1;stroke:#f73550;stroke-width:13.32994556;stroke-linecap:round;stroke-linejoin:round;stroke-miterlimit:4;stroke-opacity:1;stroke-dasharray:none;stroke-dashoffset:0" />
        </g>
      </g>
      <path
         inkscape:export-ydpi="22.367079"
         inkscape:export-xdpi="22.367079"
         inkscape:export-filename="/tmp/plosurin/art/plosurin-logo-175.png"
         inkscape:connector-curvature="0"
         id="path5402"
         d="m 391.93919,173.52949 c 2.69374,1.34687 9.42809,1.34687 8.08122,4.04061 -1.34687,2.69374 -10.2108,-1.91102 -8.08122,-4.04061 2.42811,-2.42811 6.71439,1.45578 10.10153,2.0203 0.66427,0.11071 1.34687,0 2.0203,0 0.67344,0 1.54412,0.47619 2.02031,0 0.47619,-0.47619 0,-1.34687 0,-2.0203 0,-6.16007 -2.04763,-0.0273 -4.04061,-2.02031 -0.47619,-0.47619 0.66036,-2.15237 0,-2.0203 -3.55613,0.71122 -8.08987,7.05809 -10.10153,4.04061 -2.17817,-3.26727 4.30482,-6.58932 6.06092,-10.10153 1.79583,-3.59165 -1.12239,-1.12239 -2.02031,-2.0203 -0.065,-0.065 0,-5.57094 0,-6.06092 0,-6.16006 -2.04762,-0.0273 -4.04061,-2.0203 -0.47619,-0.47619 0.47619,-1.54412 0,-2.02031 -0.47619,-0.47619 -1.34687,0 -2.0203,0 -3.36718,0 -6.73435,0 -10.10153,0 -0.48997,0 -5.99594,-0.065 -6.06091,0 -0.47619,0.47619 0.47619,1.54412 0,2.02031 -0.47619,0.47619 -1.54412,-0.47619 -2.02031,0 -0.47619,0.47619 0.47619,1.54411 0,2.0203 -0.47619,0.47619 -1.54411,-0.47619 -2.0203,0 -0.47619,0.47619 0.47619,1.54412 0,2.02031 -0.95238,0.95238 -3.08823,-0.95238 -4.04061,0 -0.95238,0.95238 0.95238,3.08823 0,4.04061 -0.47619,0.47619 -1.54412,-0.47619 -2.02031,0 -0.47619,0.47619 0.30117,1.41796 0,2.0203 -0.42591,0.85184 -1.59438,1.16847 -2.0203,2.02031 -0.60234,1.20467 0.95238,3.08823 0,4.04061 -0.47619,0.47619 -1.54412,-0.47619 -2.02031,0 -0.95238,0.95238 0.95238,3.08823 0,4.04061 -0.47619,0.47619 -1.54411,-0.47619 -2.0203,0 -0.48615,0.48614 0.48615,7.59507 0,8.08122 -0.47619,0.47619 -1.54412,-0.47619 -2.02031,0 -0.47619,0.47619 0,1.34687 0,2.0203 0,0.67344 0,1.34687 0,2.02031 0,6.73435 0,13.4687 0,20.20305 0,1.05646 0.26561,7.55 0,8.08122 -0.42592,0.85183 -1.59438,1.16847 -2.0203,2.0203 -0.60234,1.20468 0.60234,2.83594 0,4.04061 -0.42592,0.85184 -1.59439,1.16847 -2.02031,2.02031 -0.61338,1.22677 0.61339,10.89506 0,12.12183 -0.42592,0.85183 -1.59439,1.16847 -2.0203,2.0203 -0.36531,0.73061 0,8.69633 0,10.10153 0,13.4687 0,26.9374 0,40.4061 0,0.48998 0.065,5.99594 0,6.06092 -0.47619,0.47619 -1.54412,-0.47619 -2.02031,0 -0.62558,0.62558 0.62558,9.47594 0,10.10152 -0.47619,0.47619 -1.54411,-0.47619 -2.0203,0 -1.01016,1.01016 1.01015,5.05077 0,6.06092 -0.47619,0.47619 -1.34687,0 -2.02031,0"
         style="opacity:0.99288252;fill:none;stroke:#000000;stroke-width:5.4000001;stroke-linecap:butt;stroke-linejoin:miter;stroke-miterlimit:4;stroke-opacity:1;stroke-dasharray:none;stroke-dashoffset:0" />
      <rect
         inkscape:export-ydpi="22.367079"
         inkscape:export-xdpi="22.367079"
         inkscape:export-filename="/tmp/plosurin/art/plosurin-logo-175.png"
         y="268.48373"
         x="193.94933"
         height="294.96426"
         width="327.28943"
         id="rect5357"
         style="fill:#f9f9f9;fill-opacity:1;stroke:none" />
    </g>
  </g>
</svg>
